<svg width="168" height="57" viewBox="0 0 168 57" fill="none" xmlns="http://www.w3.org/2000/svg">
<g clip-path="url(#clip0_3192_68961)">
<path d="M154.622 0.500182H13.386C12.8712 0.500182 12.3626 0.500182 11.8491 0.502982C11.4193 0.505782 10.9929 0.513916 10.559 0.520762C9.61624 0.531825 8.67574 0.614529 7.74562 0.768156C6.81682 0.925128 5.91711 1.22106 5.07692 1.64596C4.23776 2.07444 3.471 2.63122 2.80445 3.29608C2.1344 3.95907 1.57586 4.72541 1.15031 5.56561C0.723586 6.40414 0.427694 7.3027 0.272854 8.23026C0.116542 9.15664 0.0324285 10.0937 0.0212695 11.0331C0.00824107 11.4623 0.00686522 11.893 0 12.3223V44.6822C0.00686522 45.1169 0.00824107 45.538 0.0212695 45.9729C0.0324319 46.9122 0.116545 47.8492 0.272854 48.7755C0.427266 49.7036 0.723176 50.6027 1.15031 51.4416C1.57567 52.279 2.13428 53.0423 2.80445 53.7016C3.46847 54.3694 4.23573 54.9266 5.07692 55.3518C5.9171 55.7778 6.81671 56.0755 7.74562 56.2349C8.67589 56.3873 9.6163 56.47 10.559 56.4824C10.9929 56.4919 11.4193 56.4974 11.8491 56.4974C12.3625 56.5002 12.8712 56.5002 13.386 56.5002H154.622C155.126 56.5002 155.639 56.5002 156.143 56.4974C156.571 56.4974 157.01 56.4919 157.438 56.4824C158.379 56.4707 159.317 56.3879 160.246 56.2349C161.177 56.0744 162.08 55.7767 162.924 55.3518C163.765 54.9263 164.531 54.3692 165.195 53.7016C165.863 53.0397 166.423 52.277 166.854 51.4416C167.278 50.6021 167.571 49.7031 167.723 48.7755C167.88 47.8491 167.967 46.9123 167.984 45.9729C167.989 45.538 167.989 45.1169 167.989 44.6822C168 44.1736 168 43.6678 168 43.1509V13.8508C168 13.3381 168 12.8295 167.989 12.3223C167.989 11.893 167.989 11.4623 167.984 11.033C167.967 10.0936 167.88 9.15671 167.723 8.2302C167.57 7.30318 167.277 6.40469 166.854 5.56555C165.987 3.88146 164.613 2.51062 162.924 1.64583C162.08 1.22198 161.177 0.926119 160.246 0.76803C159.317 0.613726 158.379 0.530993 157.438 0.520566C157.01 0.513734 156.571 0.50553 156.143 0.5028C155.639 0.5 155.126 0.500182 154.622 0.500182Z" fill="#A6A6A6"/>
<path d="M11.8559 55.275C11.4281 55.275 11.0107 55.2695 10.5863 55.26C9.70717 55.2486 8.83005 55.1722 7.96219 55.0316C7.15295 54.8927 6.36902 54.6341 5.63624 54.2646C4.91019 53.8981 4.24797 53.4176 3.67495 52.8414C3.09364 52.2719 2.60967 51.6115 2.24223 50.8862C1.87073 50.1563 1.61364 49.3738 1.47989 48.5662C1.33546 47.6983 1.25732 46.8208 1.24614 45.9412C1.23724 45.6459 1.22559 44.6628 1.22559 44.6628V12.3221C1.22559 12.3221 1.238 11.3541 1.24621 11.0697C1.25692 10.1914 1.3346 9.31529 1.4786 8.4488C1.61259 7.63893 1.86989 6.85422 2.24158 6.12186C2.60768 5.3971 3.08896 4.73618 3.66677 4.16473C4.24393 3.58785 4.90827 3.10482 5.63556 2.73327C6.36664 2.36491 7.1491 2.1082 7.9567 1.97175C8.82741 1.82975 9.70757 1.75297 10.5898 1.74207L11.8566 1.72498H156.136L157.418 1.74276C158.293 1.75311 159.165 1.82921 160.027 1.97038C160.843 2.10854 161.634 2.36704 162.373 2.73737C163.83 3.48616 165.016 4.6708 165.764 6.12527C166.13 6.85258 166.383 7.63088 166.515 8.43376C166.661 9.30736 166.742 10.1904 166.759 11.0759C166.763 11.4723 166.763 11.8982 166.763 12.3221C166.774 12.847 166.774 13.3468 166.774 13.8506V43.1507C166.774 43.6593 166.774 44.1556 166.763 44.656C166.763 45.1113 166.763 45.5283 166.758 45.9576C166.741 46.8272 166.661 47.6945 166.518 48.5525C166.387 49.3659 166.131 50.1545 165.76 50.8904C165.39 51.6078 164.908 52.2625 164.334 52.8304C163.76 53.4097 163.097 53.8931 162.369 54.2619C161.632 54.6343 160.842 54.8938 160.027 55.0316C159.16 55.173 158.282 55.2493 157.403 55.26C156.992 55.2695 156.561 55.275 156.143 55.275L154.621 55.2778L11.8559 55.275Z" fill="black"/>
<path d="M34.7738 28.9209C34.7889 27.7524 35.1001 26.6067 35.6786 25.5903C36.257 24.574 37.0839 23.7201 38.0822 23.1081C37.448 22.2048 36.6114 21.4615 35.6387 20.9371C34.666 20.4128 33.5841 20.1218 32.4789 20.0873C30.1214 19.8405 27.8359 21.4941 26.6345 21.4941C25.4099 21.4941 23.5602 20.1118 21.5684 20.1527C20.2801 20.1942 19.0245 20.5678 17.924 21.2371C16.8234 21.9063 15.9156 22.8485 15.2887 23.9717C12.5735 28.6595 14.5988 35.5489 17.1998 39.3382C18.5011 41.1937 20.0219 43.2663 22.0119 43.1928C23.9593 43.1123 24.6866 41.9545 27.0372 41.9545C29.3659 41.9545 30.0483 43.1928 32.0787 43.1461C34.1683 43.1123 35.4848 41.2823 36.7404 39.4093C37.6754 38.0872 38.3949 36.626 38.8722 35.0798C37.6582 34.5678 36.6222 33.7107 35.8934 32.6155C35.1646 31.5203 34.7752 30.2354 34.7738 28.9209Z" fill="white"/>
<path d="M30.9388 17.5952C32.0781 16.2313 32.6394 14.4783 32.5035 12.7084C30.7629 12.8907 29.155 13.7203 28.0003 15.0318C27.4357 15.6726 27.0033 16.418 26.7278 17.2254C26.4523 18.0329 26.3391 18.8866 26.3946 19.7378C27.2652 19.7467 28.1265 19.5585 28.9137 19.1874C29.7008 18.8163 30.3932 18.2719 30.9388 17.5952Z" fill="white"/>
<path d="M59.3894 38.4955H52.7441L51.1482 43.1945H48.3335L54.6279 25.8093H57.5523L63.8466 43.1945H60.9839L59.3894 38.4955ZM53.4323 36.3271H58.6999L56.1032 28.701H56.0305L53.4323 36.3271Z" fill="white"/>
<path d="M77.4404 36.8576C77.4404 40.7965 75.3262 43.3272 72.1359 43.3272C71.3277 43.3693 70.5239 43.1837 69.8167 42.7915C69.1094 42.3993 68.5271 41.8164 68.1366 41.1096H68.0762V47.3877H65.4672V30.5194H67.9926V32.6276H68.0406C68.4491 31.9241 69.0412 31.3442 69.7539 30.9497C70.4665 30.5551 71.2732 30.3605 72.0879 30.3867C75.3139 30.3868 77.4404 32.9297 77.4404 36.8576ZM74.7586 36.8576C74.7586 34.2914 73.4287 32.6043 71.3996 32.6043C69.4062 32.6043 68.0653 34.327 68.0653 36.8576C68.0653 39.4116 69.4062 41.1219 71.3996 41.1219C73.4288 41.1219 74.7586 39.4471 74.7586 36.8576Z" fill="white"/>
<path d="M91.4304 36.8576C91.4304 40.7965 89.3162 43.3272 86.1259 43.3272C85.3177 43.3693 84.5139 43.1837 83.8066 42.7915C83.0994 42.3993 82.5171 41.8164 82.1266 41.1096H82.0662V47.3877H79.4572V30.5193H81.9826V32.6275H82.0306C82.439 31.9241 83.0311 31.3442 83.7438 30.9497C84.4565 30.5551 85.2631 30.3605 86.0778 30.3867C89.3039 30.3867 91.4304 32.9297 91.4304 36.8576ZM88.7486 36.8576C88.7486 34.2914 87.4187 32.6043 85.3896 32.6043C83.3961 32.6043 82.0553 34.327 82.0553 36.8576C82.0553 39.4115 83.3961 41.1219 85.3896 41.1219C87.4187 41.1219 88.7486 39.4471 88.7486 36.8576Z" fill="white"/>
<path d="M100.677 38.3506C100.87 40.0746 102.549 41.2066 104.844 41.2066C107.044 41.2066 108.626 40.0746 108.626 38.5201C108.626 37.1707 107.672 36.3627 105.412 35.8089L103.153 35.2662C99.9513 34.4951 98.4651 33.0021 98.4651 30.5794C98.4651 27.5798 101.086 25.5195 104.809 25.5195C108.493 25.5195 111.018 27.5798 111.103 30.5794H108.469C108.312 28.8445 106.874 27.7972 104.772 27.7972C102.67 27.7972 101.232 28.8568 101.232 30.399C101.232 31.6281 102.15 32.3513 104.397 32.905L106.318 33.3753C109.895 34.2188 111.381 35.6517 111.381 38.1946C111.381 41.4472 108.783 43.4843 104.651 43.4843C100.785 43.4843 98.1744 41.495 98.0057 38.3505L100.677 38.3506Z" fill="white"/>
<path d="M117.012 27.5197V30.5193H119.429V32.5797H117.012V39.5674C117.012 40.6529 117.496 41.1588 118.559 41.1588C118.846 41.1538 119.132 41.1337 119.417 41.0986V43.1466C118.939 43.2356 118.454 43.276 117.968 43.2669C115.394 43.2669 114.391 42.3031 114.391 39.8449V32.5797H112.543V30.5193H114.391V27.5197H117.012Z" fill="white"/>
<path d="M120.829 36.8577C120.829 32.8696 123.185 30.3635 126.858 30.3635C130.543 30.3635 132.888 32.8695 132.888 36.8577C132.888 40.8567 130.555 43.3518 126.858 43.3518C123.161 43.3518 120.829 40.8567 120.829 36.8577ZM130.229 36.8577C130.229 34.1219 128.972 32.5073 126.858 32.5073C124.744 32.5073 123.488 34.1342 123.488 36.8577C123.488 39.6043 124.744 41.2067 126.858 41.2067C128.972 41.2067 130.229 39.6043 130.229 36.8577Z" fill="white"/>
<path d="M135.038 30.5194H137.527V32.6768H137.587C137.756 32.003 138.151 31.4075 138.708 30.9905C139.265 30.5734 139.949 30.3602 140.645 30.3867C140.945 30.3857 141.245 30.4182 141.539 30.4838V32.9174C141.159 32.8017 140.763 32.7486 140.366 32.7602C139.987 32.7448 139.609 32.8115 139.259 32.9555C138.908 33.0996 138.592 33.3176 138.334 33.5946C138.076 33.8717 137.881 34.2012 137.762 34.5605C137.644 34.9199 137.605 35.3005 137.648 35.6764V43.1945H135.038L135.038 30.5194Z" fill="white"/>
<path d="M153.568 39.4717C153.217 41.7726 150.97 43.3517 148.095 43.3517C144.397 43.3517 142.102 40.8812 142.102 36.9178C142.102 32.942 144.409 30.3635 147.985 30.3635C151.502 30.3635 153.713 32.7724 153.713 36.6156V37.507H144.736V37.6642C144.694 38.1307 144.753 38.6007 144.908 39.0428C145.062 39.485 145.31 39.8893 145.633 40.2289C145.956 40.5684 146.349 40.8355 146.783 41.0123C147.218 41.1892 147.686 41.2717 148.155 41.2545C148.772 41.3121 149.39 41.1697 149.919 40.8485C150.448 40.5272 150.859 40.0444 151.091 39.4717L153.568 39.4717ZM144.748 35.6887H151.103C151.126 35.2692 151.062 34.8495 150.916 34.4558C150.769 34.0621 150.542 33.7029 150.249 33.4009C149.956 33.0988 149.604 32.8603 149.214 32.7004C148.825 32.5405 148.406 32.4626 147.985 32.4717C147.56 32.4691 147.139 32.5505 146.746 32.7112C146.353 32.8718 145.995 33.1085 145.694 33.4076C145.394 33.7067 145.155 34.0622 144.993 34.4538C144.83 34.8453 144.747 35.265 144.748 35.6887Z" fill="white"/>
<path d="M53.1053 12.7234C53.6523 12.6843 54.2012 12.7667 54.7124 12.9647C55.2236 13.1627 55.6843 13.4714 56.0614 13.8684C56.4385 14.2655 56.7225 14.7411 56.8929 15.2609C57.0634 15.7806 57.116 16.3317 57.047 16.8742C57.047 19.5429 55.6006 21.077 53.1053 21.077H50.0795V12.7234H53.1053ZM51.3806 19.8956H52.96C53.3508 19.9189 53.742 19.855 54.105 19.7085C54.4679 19.5621 54.7936 19.3368 55.0582 19.049C55.3229 18.7612 55.5198 18.4182 55.6347 18.0449C55.7497 17.6716 55.7797 17.2775 55.7226 16.8912C55.7755 16.5064 55.7425 16.1148 55.6258 15.7442C55.5091 15.3737 55.3117 15.0335 55.0476 14.748C54.7836 14.4625 54.4595 14.2388 54.0986 14.0928C53.7377 13.9469 53.3488 13.8824 52.96 13.9039H51.3806V19.8956Z" fill="white"/>
<path d="M58.5168 17.9221C58.477 17.5078 58.5246 17.0898 58.6563 16.6949C58.7881 16.3 59.0011 15.937 59.2818 15.629C59.5625 15.321 59.9047 15.0749 60.2863 14.9066C60.668 14.7382 61.0807 14.6512 61.4981 14.6512C61.9154 14.6512 62.3282 14.7382 62.7098 14.9066C63.0915 15.0749 63.4336 15.321 63.7143 15.629C63.9951 15.937 64.2081 16.3 64.3399 16.6949C64.4716 17.0898 64.5191 17.5078 64.4794 17.9221C64.5199 18.3368 64.4729 18.7554 64.3415 19.1509C64.2101 19.5465 63.9972 19.9102 63.7164 20.2188C63.4356 20.5274 63.0932 20.774 62.7112 20.9427C62.3291 21.1115 61.9159 21.1986 61.4981 21.1986C61.0802 21.1986 60.667 21.1115 60.285 20.9427C59.9029 20.774 59.5605 20.5274 59.2797 20.2188C58.999 19.9102 58.786 19.5465 58.6546 19.1509C58.5232 18.7554 58.4763 18.3368 58.5168 17.9221ZM63.1961 17.9221C63.1961 16.5556 62.5805 15.7565 61.5001 15.7565C60.4157 15.7565 59.8056 16.5556 59.8056 17.9221C59.8056 19.2996 60.4157 20.0925 61.5001 20.0925C62.5805 20.0925 63.1961 19.2941 63.1961 17.9221Z" fill="white"/>
<path d="M72.4053 21.0769H71.111L69.8044 16.4339H69.7057L68.4046 21.0769H67.1227L65.3801 14.7728H66.6456L67.7781 19.5832H67.8713L69.171 14.7728H70.3679L71.6677 19.5832H71.7664L72.8933 14.7728H74.141L72.4053 21.0769Z" fill="white"/>
<path d="M75.6066 14.7728H76.8076V15.7743H76.9008C77.059 15.4146 77.3257 15.113 77.6639 14.9117C78.0021 14.7104 78.3948 14.6193 78.7874 14.6511C79.095 14.628 79.4038 14.6743 79.6911 14.7864C79.9783 14.8986 80.2366 15.0737 80.4467 15.2989C80.6568 15.5241 80.8135 15.7935 80.905 16.0873C80.9966 16.381 81.0207 16.6915 80.9755 16.9958V21.0768H79.7279V17.3082C79.7279 16.2952 79.2864 15.7913 78.3637 15.7913C78.1549 15.7816 77.9464 15.8171 77.7526 15.8953C77.5587 15.9734 77.3842 16.0924 77.2408 16.2442C77.0974 16.3959 76.9886 16.5768 76.9219 16.7744C76.8552 16.972 76.8321 17.1816 76.8542 17.3889V21.0769H75.6066L75.6066 14.7728Z" fill="white"/>
<path d="M82.9635 12.3118H84.2111V21.0769H82.9635V12.3118Z" fill="white"/>
<path d="M85.9455 17.9221C85.9058 17.5078 85.9533 17.0898 86.0851 16.6949C86.2169 16.3 86.43 15.9369 86.7107 15.6289C86.9914 15.3209 87.3336 15.0748 87.7153 14.9064C88.097 14.738 88.5097 14.6511 88.9271 14.6511C89.3445 14.6511 89.7572 14.738 90.1389 14.9064C90.5206 15.0748 90.8628 15.3209 91.1435 15.6289C91.4243 15.9369 91.6373 16.3 91.7691 16.6949C91.9009 17.0898 91.9485 17.5078 91.9087 17.9221C91.9492 18.3368 91.9022 18.7554 91.7707 19.1509C91.6393 19.5465 91.4263 19.9102 91.1455 20.2188C90.8647 20.5274 90.5223 20.7739 90.1402 20.9427C89.7582 21.1114 89.345 21.1986 88.9271 21.1986C88.5093 21.1986 88.096 21.1114 87.714 20.9427C87.3319 20.7739 86.9895 20.5274 86.7087 20.2188C86.4279 19.9102 86.2149 19.5465 86.0835 19.1509C85.952 18.7554 85.905 18.3368 85.9455 17.9221ZM90.6248 17.9221C90.6248 16.5556 90.0092 15.7565 88.9288 15.7565C87.8443 15.7565 87.2343 16.5556 87.2343 17.9221C87.2343 19.2996 87.8444 20.0925 88.9288 20.0925C90.0092 20.0925 90.6248 19.2941 90.6248 17.9221Z" fill="white"/>
<path d="M93.2222 19.2941C93.2222 18.1593 94.0695 17.5051 95.5735 17.4121L97.2859 17.3137V16.7696C97.2859 16.1037 96.8444 15.7278 95.9916 15.7278C95.2952 15.7278 94.8126 15.9828 94.6741 16.4285H93.4662C93.5937 15.3456 94.6151 14.6511 96.0492 14.6511C97.6341 14.6511 98.528 15.4379 98.528 16.7696V21.0769H97.327V20.191H97.2283C97.0279 20.5088 96.7466 20.7678 96.413 20.9417C96.0794 21.1156 95.7055 21.1981 95.3294 21.1808C95.064 21.2083 94.7958 21.1801 94.542 21.0979C94.2883 21.0157 94.0546 20.8814 93.856 20.7036C93.6575 20.5259 93.4985 20.3086 93.3893 20.0658C93.2802 19.8231 93.2232 19.5602 93.2222 19.2941ZM97.2859 18.7554V18.2284L95.7421 18.3268C94.8715 18.3849 94.4766 18.6802 94.4766 19.236C94.4766 19.8033 94.9702 20.1335 95.6489 20.1335C95.8478 20.1536 96.0487 20.1336 96.2396 20.0746C96.4305 20.0157 96.6077 19.9191 96.7604 19.7905C96.9131 19.6619 97.0383 19.504 97.1286 19.3262C97.2189 19.1484 97.2724 18.9543 97.2859 18.7554Z" fill="white"/>
<path d="M100.168 17.9221C100.168 15.9301 101.195 14.6682 102.792 14.6682C103.187 14.65 103.579 14.7444 103.922 14.9403C104.266 15.1361 104.546 15.4254 104.731 15.7742H104.824V12.3118H106.071V21.0769H104.876V20.0809H104.777C104.578 20.4274 104.288 20.713 103.938 20.9069C103.589 21.1008 103.192 21.1955 102.792 21.1808C101.184 21.1808 100.168 19.9189 100.168 17.9221ZM101.457 17.9221C101.457 19.2592 102.089 20.0638 103.146 20.0638C104.197 20.0638 104.847 19.2476 104.847 17.9276C104.847 16.6137 104.19 15.7859 103.146 15.7859C102.096 15.7859 101.457 16.5959 101.457 17.9221Z" fill="white"/>
<path d="M111.233 17.9221C111.194 17.5078 111.241 17.0898 111.373 16.6949C111.505 16.3 111.718 15.937 111.998 15.629C112.279 15.321 112.621 15.0749 113.003 14.9066C113.385 14.7382 113.797 14.6512 114.215 14.6512C114.632 14.6512 115.045 14.7382 115.426 14.9066C115.808 15.0749 116.15 15.321 116.431 15.629C116.712 15.937 116.925 16.3 117.056 16.6949C117.188 17.0898 117.236 17.5078 117.196 17.9221C117.236 18.3368 117.189 18.7554 117.058 19.1509C116.927 19.5465 116.714 19.9102 116.433 20.2188C116.152 20.5274 115.81 20.774 115.428 20.9427C115.046 21.1115 114.632 21.1986 114.215 21.1986C113.797 21.1986 113.384 21.1115 113.002 20.9427C112.619 20.774 112.277 20.5274 111.996 20.2188C111.716 19.9102 111.503 19.5465 111.371 19.1509C111.24 18.7554 111.193 18.3368 111.233 17.9221ZM115.913 17.9221C115.913 16.5556 115.297 15.7565 114.217 15.7565C113.132 15.7565 112.522 16.5556 112.522 17.9221C112.522 19.2996 113.132 20.0925 114.217 20.0925C115.297 20.0925 115.913 19.2941 115.913 17.9221Z" fill="white"/>
<path d="M118.87 14.7728H120.071V15.7743H120.164C120.322 15.4146 120.589 15.113 120.927 14.9117C121.265 14.7104 121.658 14.6193 122.051 14.6511C122.358 14.628 122.667 14.6743 122.954 14.7864C123.242 14.8986 123.5 15.0737 123.71 15.2989C123.92 15.5241 124.077 15.7935 124.168 16.0873C124.26 16.381 124.284 16.6915 124.239 16.9958V21.0768H122.991V17.3082C122.991 16.2952 122.55 15.7913 121.627 15.7913C121.418 15.7816 121.21 15.8171 121.016 15.8953C120.822 15.9734 120.648 16.0924 120.504 16.2442C120.361 16.3959 120.252 16.5768 120.185 16.7744C120.119 16.972 120.096 17.1816 120.118 17.3889V21.0769H118.87V14.7728Z" fill="white"/>
<path d="M131.289 13.2032V14.8015H132.658V15.8494H131.289V19.091C131.289 19.7514 131.562 20.0406 132.183 20.0406C132.342 20.04 132.5 20.0305 132.658 20.0118V21.0482C132.434 21.0881 132.207 21.1094 131.98 21.1117C130.592 21.1117 130.04 20.625 130.04 19.4096V15.8494H129.036V14.8014H130.04V13.2032H131.289Z" fill="white"/>
<path d="M134.363 12.3118H135.599V15.7859H135.698C135.864 15.4228 136.138 15.1196 136.483 14.9175C136.828 14.7154 137.227 14.6243 137.626 14.6566C137.932 14.64 138.237 14.6909 138.521 14.8058C138.805 14.9206 139.06 15.0966 139.268 15.321C139.476 15.5455 139.632 15.813 139.724 16.1044C139.817 16.3958 139.844 16.7039 139.803 17.0068V21.0769H138.554V17.3137C138.554 16.3067 138.084 15.7968 137.202 15.7968C136.988 15.7792 136.772 15.8086 136.57 15.8829C136.368 15.9572 136.185 16.0745 136.033 16.2268C135.882 16.379 135.765 16.5624 135.692 16.7642C135.619 16.966 135.591 17.1813 135.61 17.395V21.0769H134.363L134.363 12.3118Z" fill="white"/>
<path d="M147.077 19.3747C146.908 19.9509 146.541 20.4493 146.04 20.7827C145.539 21.1161 144.937 21.2633 144.338 21.1986C143.922 21.2095 143.508 21.13 143.125 20.9654C142.743 20.8009 142.4 20.5553 142.123 20.2457C141.845 19.9361 141.638 19.5699 141.516 19.1726C141.394 18.7752 141.361 18.3562 141.418 17.9447C141.362 17.5318 141.396 17.1119 141.518 16.7134C141.639 16.3148 141.845 15.947 142.122 15.6347C142.398 15.3224 142.738 15.0729 143.12 14.9032C143.501 14.7335 143.915 14.6476 144.333 14.6511C146.092 14.6511 147.153 15.8495 147.153 17.8291V18.2632H142.689V18.333C142.669 18.5643 142.698 18.7972 142.774 19.0166C142.85 19.2361 142.971 19.4373 143.13 19.6073C143.289 19.7773 143.481 19.9125 143.695 20.004C143.909 20.0956 144.14 20.1415 144.372 20.139C144.671 20.1747 144.973 20.1211 145.241 19.985C145.509 19.8489 145.73 19.6365 145.876 19.3747L147.077 19.3747ZM142.689 17.3431H145.882C145.898 17.1315 145.869 16.919 145.797 16.7192C145.726 16.5194 145.613 16.3367 145.466 16.1829C145.32 16.0291 145.143 15.9076 144.946 15.8261C144.75 15.7447 144.538 15.7051 144.326 15.71C144.11 15.7073 143.896 15.7477 143.696 15.8288C143.496 15.9099 143.314 16.0301 143.162 16.1823C143.009 16.3345 142.889 16.5157 142.808 16.715C142.726 16.9144 142.686 17.1279 142.689 17.3431Z" fill="white"/>
</g>
<defs>
<clipPath id="clip0_3192_68961">
<rect width="168" height="56" fill="white" transform="translate(0 0.5)"/>
</clipPath>
</defs>
</svg>
