<svg width="32" height="32" viewBox="0 0 32 32" fill="none" xmlns="http://www.w3.org/2000/svg">
<g clip-path="url(#clip0_3192_75370)">
<path fill-rule="evenodd" clip-rule="evenodd" d="M24 32H8C5.8783 31.9999 3.84352 31.157 2.34325 29.6568C0.842977 28.1565 9.28184e-05 26.1217 0 24L0 8C9.28184e-05 5.8783 0.842977 3.84352 2.34325 2.34325C3.84352 0.842977 5.8783 9.28184e-05 8 0L24 0C26.1217 0 28.1566 0.842855 29.6569 2.34315C31.1571 3.84344 32 5.87827 32 8V24C32 26.1217 31.1571 28.1566 29.6569 29.6569C28.1566 31.1571 26.1217 32 24 32Z" fill="#DEEBF5"/>
<path fill-rule="evenodd" clip-rule="evenodd" d="M15 9H24C25.1536 8.99993 26.2632 8.55683 27.0995 7.7622C27.9359 6.96758 28.4351 5.88213 28.4941 4.73C28.5532 3.57788 28.1675 2.44708 27.4168 1.57113C26.666 0.695185 25.6076 0.140991 24.46 0.023C24.307 0.0145 24.1555 0 24 0H8C5.8783 9.28184e-05 3.84352 0.842977 2.34325 2.34325C0.842977 3.84352 9.28184e-05 5.8783 0 8L0 24C9.28219e-05 20.0218 1.58048 16.2065 4.3935 13.3935C7.20653 10.5805 11.0218 9.00009 15 9Z" fill="#F0FAFF"/>
<path fill-rule="evenodd" clip-rule="evenodd" d="M24 16C22.4178 16 20.871 16.4692 19.5554 17.3482C18.2399 18.2273 17.2145 19.4767 16.609 20.9385C16.0035 22.4003 15.845 24.0089 16.1537 25.5607C16.4624 27.1126 17.2243 28.538 18.3431 29.6569C19.462 30.7757 20.8874 31.5376 22.4393 31.8463C23.9911 32.155 25.5997 31.9965 27.0615 31.391C28.5233 30.7855 29.7727 29.7602 30.6518 28.4446C31.5308 27.129 32 25.5823 32 24V8C32 10.1217 31.1572 12.1566 29.6569 13.6569C28.1566 15.1571 26.1217 16 24 16Z" fill="#CDDCEB"/>
<path d="M26.0016 16.2351C26.0016 15.8456 25.9836 15.4546 25.9471 15.0661C25.9233 14.8191 25.8082 14.5898 25.6244 14.423C25.4406 14.2563 25.2013 14.1639 24.9531 14.1641C23.1656 14.1621 19.0941 14.1621 17.2031 14.1621C16.9379 14.1621 16.6836 14.2675 16.496 14.455C16.3085 14.6425 16.2031 14.8969 16.2031 15.1621V17.0906C16.2032 17.3558 16.3086 17.6101 16.4961 17.7976C16.6836 17.9851 16.9379 18.0905 17.2031 18.0906H21.7131C21.6003 18.7183 21.3615 19.3166 21.011 19.8494C20.6606 20.3822 20.2058 20.8384 19.6741 21.1906V21.1916C19.6741 21.5262 19.74 21.8576 19.868 22.1667C19.9961 22.4759 20.1838 22.7568 20.4204 22.9934C20.657 23.23 20.9379 23.4177 21.247 23.5457C21.5562 23.6737 21.8875 23.7396 22.2221 23.7396H22.9616C24.8921 21.9631 26.0016 19.3391 26.0016 16.2351Z" fill="#1E78FF"/>
<path d="M16.2024 26.2021C18.6878 26.272 21.1062 25.3911 22.9644 23.7391L19.6774 21.1901C18.8858 21.6967 17.9891 22.0164 17.0555 22.1248C16.1219 22.2332 15.1758 22.1275 14.2891 21.8156C13.4024 21.5038 12.5985 20.9941 11.9382 20.3252C11.2779 19.6563 10.7787 18.8457 10.4784 17.9551H9.71294C9.01623 17.9551 8.34808 18.2319 7.85544 18.7246C7.3628 19.2172 7.086 19.8854 7.08594 20.5821V20.5831C7.93565 22.2724 9.23806 23.6924 10.8478 24.6846C12.4576 25.6768 14.3114 26.2022 16.2024 26.2021Z" fill="#00B450"/>
<path d="M10.4739 17.9554C10.0464 16.6886 10.0464 15.3166 10.4739 14.0499V14.0489C10.4738 13.3522 10.197 12.684 9.70437 12.1914C9.21173 11.6987 8.54358 11.4219 7.84688 11.4219H7.08488C6.37149 12.8435 6 14.4121 6 16.0026C6 17.5932 6.37149 19.1618 7.08488 20.5834L10.4739 17.9554Z" fill="#FFB400"/>
<path d="M16.2024 9.83641C17.3642 9.81811 18.5025 10.1647 19.4569 10.8274C19.6464 10.9653 19.8788 11.0311 20.1124 11.0127C20.346 10.9944 20.5654 10.8932 20.7309 10.7274C21.1884 10.2934 21.7899 9.69191 22.2639 9.21791C22.3645 9.11743 22.4424 8.99667 22.4926 8.86369C22.5428 8.7307 22.5641 8.58855 22.555 8.4467C22.5459 8.30485 22.5067 8.16656 22.4399 8.04107C22.3732 7.91557 22.2805 7.80574 22.1679 7.71891C20.4398 6.4498 18.3464 5.77618 16.2024 5.79941C14.311 5.79916 12.4567 6.32486 10.8468 7.31775C9.23689 8.31064 7.93478 9.73162 7.08594 11.4219L10.4749 14.0499C10.8694 12.8371 11.6341 11.7783 12.6614 11.0226C13.6888 10.2668 14.9271 9.85196 16.2024 9.83641Z" fill="#E60014"/>
</g>
<defs>
<clipPath id="clip0_3192_75370">
<rect width="32" height="32" fill="white"/>
</clipPath>
</defs>
</svg>
