<svg width="32" height="32" viewBox="0 0 32 32" fill="none" xmlns="http://www.w3.org/2000/svg">
<g clip-path="url(#clip0_3192_75379)">
<path d="M1.99961 2.17772C-0.515052 4.78972 -0.000385359 7.56439 -0.000385359 15.9937C-0.000385359 22.9937 -1.22172 30.0111 5.17028 31.6631C7.16628 32.1764 24.8516 32.1764 26.8449 31.6604C29.5063 30.9737 31.6716 28.8151 31.9676 25.0511C32.0089 24.5257 32.0089 7.47105 31.9663 6.93505C31.6516 2.92572 29.1836 0.615054 25.9316 0.147054C25.1863 0.0390541 25.0369 0.00705405 21.2129 0.000387382C7.64895 0.00705405 4.67561 -0.596946 1.99961 2.17772Z" fill="url(#paint0_linear_3192_75379)"/>
<path d="M15.9997 4.18523C11.1584 4.18523 6.56102 3.75456 4.80502 8.26123C4.07969 10.1226 4.18502 12.5399 4.18502 16.0012C4.18502 19.0386 4.08769 21.8932 4.80502 23.7399C6.55702 28.2492 11.1917 27.8172 15.997 27.8172C20.633 27.8172 25.413 28.2999 27.1904 23.7399C27.917 21.8599 27.8104 19.4786 27.8104 16.0012C27.8104 11.3852 28.065 8.40523 25.8264 6.1679C23.5597 3.90123 20.4944 4.18523 15.9944 4.18523H15.9997ZM14.941 6.31456C25.0397 6.29856 26.325 5.1759 25.6157 20.7719C25.3637 26.2879 21.1637 25.6826 16.001 25.6826C6.58769 25.6826 6.31702 25.4132 6.31702 15.9959C6.31702 6.46923 7.06369 6.3199 14.941 6.3119V6.31456ZM22.3064 8.2759C21.5237 8.2759 20.889 8.91056 20.889 9.69323C20.889 10.4759 21.5237 11.1106 22.3064 11.1106C23.089 11.1106 23.7237 10.4759 23.7237 9.69323C23.7237 8.91056 23.089 8.2759 22.3064 8.2759ZM15.9997 9.93323C12.649 9.93323 9.93302 12.6506 9.93302 16.0012C9.93302 19.3519 12.649 22.0679 15.9997 22.0679C19.3504 22.0679 22.065 19.3519 22.065 16.0012C22.065 12.6506 19.3504 9.93323 15.9997 9.93323ZM15.9997 12.0626C21.2064 12.0626 21.213 19.9399 15.9997 19.9399C10.7944 19.9399 10.7864 12.0626 15.9997 12.0626Z" fill="white"/>
</g>
<defs>
<linearGradient id="paint0_linear_3192_75379" x1="2.06097" y1="29.9565" x2="31.8016" y2="4.21635" gradientUnits="userSpaceOnUse">
<stop stop-color="#FFDD55"/>
<stop offset="0.5" stop-color="#FF543E"/>
<stop offset="1" stop-color="#C837AB"/>
</linearGradient>
<clipPath id="clip0_3192_75379">
<rect width="32" height="32" fill="white"/>
</clipPath>
</defs>
</svg>
