<svg width="290" height="122" viewBox="0 0 290 122" fill="none" xmlns="http://www.w3.org/2000/svg">
<path fill-rule="evenodd" clip-rule="evenodd" d="M146.022 20.9886L133.853 2.55557L132.483 0.479818C131.774 -0.181003 131.074 -0.149905 130.389 0.549787L129.165 2.55557L89.0537 68.4977L136.963 41.0542L146.022 20.9886Z" fill="#5442E3"/>
<path fill-rule="evenodd" clip-rule="evenodd" d="M158.869 0.159048L132.097 60.3636L179.236 32.7336L159.862 0.0813045C159.523 -0.0508595 159.192 -0.0197621 158.861 0.159048" fill="#5442E3"/>
<path fill-rule="evenodd" clip-rule="evenodd" d="M181.07 35.8789L162.697 46.6386L200.945 68.5467L181.07 35.8789Z" fill="#121421"/>
<path d="M25.9797 97.6015L15.8207 113.214H15.6368L5.56975 97.6962V121.351H0.00756836V88.2344H6.02944L15.8207 103.894L25.612 88.2344H31.6339V121.351H25.9797V97.6015Z" fill="#121421"/>
<path d="M74.4819 104.756C74.4819 107.09 74.0682 109.298 73.2408 111.379C72.4133 113.461 71.2488 115.29 69.7472 116.867C68.2455 118.413 66.4681 119.643 64.4148 120.557C62.3616 121.472 60.0938 121.929 57.6115 121.929C55.1292 121.929 52.8614 121.488 50.8082 120.605C48.7549 119.69 46.9928 118.46 45.5218 116.915C44.0508 115.369 42.9016 113.556 42.0742 111.474C41.2467 109.392 40.833 107.185 40.833 104.851C40.833 102.517 41.2467 100.309 42.0742 98.2276C42.9016 96.146 44.0661 94.3325 45.5678 92.7871C47.0694 91.2101 48.8468 89.9643 50.9001 89.0497C52.9534 88.1351 55.2211 87.6777 57.7034 87.6777C60.1857 87.6777 62.4535 88.1351 64.5068 89.0497C66.56 89.9328 68.3222 91.147 69.7931 92.6925C71.2641 94.2379 72.4133 96.0514 73.2408 98.133C74.0682 100.215 74.4819 102.422 74.4819 104.756ZM68.552 104.851C68.552 103.242 68.2762 101.728 67.7246 100.309C67.2036 98.8584 66.4528 97.5968 65.4721 96.5245C64.5221 95.4522 63.3729 94.6006 62.0245 93.9698C60.6761 93.339 59.2051 93.0236 57.6115 93.0236C56.0179 93.0236 54.5469 93.339 53.1985 93.9698C51.8808 94.5691 50.7469 95.4048 49.7969 96.4772C48.8468 97.518 48.096 98.7638 47.5444 100.215C47.0234 101.634 46.7629 103.148 46.7629 104.756C46.7629 106.365 47.0234 107.894 47.5444 109.345C48.096 110.764 48.8468 112.01 49.7969 113.083C50.7775 114.155 51.9421 115.006 53.2905 115.637C54.6389 116.268 56.1099 116.583 57.7034 116.583C59.297 116.583 60.7527 116.284 62.0704 115.685C63.4188 115.054 64.5681 114.218 65.5181 113.177C66.4681 112.105 67.2036 110.859 67.7246 109.44C68.2762 107.989 68.552 106.459 68.552 104.851Z" fill="#121421"/>
<path d="M97.6566 113.687L107.31 88.2344H113.424L100.047 121.587H95.0824L81.7056 88.2344H87.9573L97.6566 113.687Z" fill="#121421"/>
<path d="M151.946 88.2344V93.4384H133.742V102.049H149.877V107.253H133.742V116.147H152.175V121.351H128.088V88.2344H151.946Z" fill="#121421"/>
<path d="M196.819 121.353H194.429V92.5888L181.696 111.654H181.512L168.779 92.5888V121.353H166.48V88.2363H168.733L181.65 107.822L194.567 88.2363H196.819V121.353Z" fill="#5442E3"/>
<path d="M213.738 121.351H211.348V88.2344H213.738V121.351Z" fill="#5442E3"/>
<path d="M253.916 121.353H252.123L229.461 91.9264V121.353H227.162V88.2363H229.415L251.617 117.047V88.2363H253.916V121.353Z" fill="#5442E3"/>
<path d="M290.006 90.5072H278.789V121.353H276.399V90.5072H265.183V88.2363H290.006V90.5072Z" fill="#5442E3"/>
</svg>
