<svg width="11" height="8" viewBox="0 0 11 8" fill="none" xmlns="http://www.w3.org/2000/svg">
<path fill-rule="evenodd" clip-rule="evenodd" d="M3.52398 5.15701L8.837 0.938464C8.96622 0.836768 9.1226 0.775521 9.28652 0.762419C9.45043 0.749317 9.61456 0.784942 9.75829 0.864821C9.90203 0.9447 10.0189 1.06527 10.0944 1.21139C10.1698 1.3575 10.2004 1.52265 10.1822 1.68608C10.17 1.79487 10.1364 1.90016 10.0833 1.99589C10.0302 2.09163 9.9587 2.1759 9.87289 2.24387L3.83803 7.03426L3.77943 7.08113C3.75528 7.09807 3.73025 7.11372 3.70444 7.12801L3.67163 7.1491C3.48111 7.24751 3.25995 7.26857 3.05429 7.20788C2.84862 7.14718 2.67433 7.00942 2.56777 6.82333L2.47403 6.66631L0.924886 3.97347C0.870564 3.87899 0.835385 3.77473 0.821357 3.66665C0.807328 3.55856 0.814725 3.44878 0.843126 3.34356C0.871526 3.23833 0.920373 3.13973 0.986879 3.05339C1.05338 2.96705 1.13625 2.89465 1.23073 2.84032C1.42155 2.73062 1.64814 2.70121 1.86065 2.75856C1.96587 2.78696 2.06447 2.83581 2.15081 2.90232C2.23716 2.96882 2.30956 3.05168 2.36388 3.14617L3.52632 5.15701H3.52398Z" fill="#02BC09"/>
</svg>
