<svg width="23" height="23" viewBox="0 0 23 23" fill="none" xmlns="http://www.w3.org/2000/svg">
<path d="M14.3499 22.1591C14.0421 22.1573 13.7406 22.0728 13.4767 21.9144C13.2128 21.7561 12.9963 21.5298 12.8499 21.2591L8.72487 13.8641C8.7043 13.8241 8.67318 13.7904 8.63487 13.7667L1.23987 9.66415C0.946654 9.49956 0.707411 9.25354 0.551074 8.95585C0.394737 8.65816 0.328004 8.32154 0.358947 7.98672C0.38989 7.6519 0.517184 7.33322 0.725431 7.06922C0.933678 6.80522 1.21396 6.60721 1.53237 6.49915L19.9449 0.34915C20.2521 0.245482 20.5821 0.229713 20.8978 0.303623C21.2135 0.377533 21.5023 0.53818 21.7316 0.767447C21.9608 0.996714 22.1215 1.28548 22.1954 1.60117C22.2693 1.91687 22.2535 2.24694 22.1499 2.55415L15.9999 20.9667C15.8945 21.2901 15.6959 21.5751 15.429 21.7859C15.1621 21.9968 14.8389 22.124 14.4999 22.1516L14.3499 22.1591ZM20.4174 1.76665L2.01237 7.90915C1.96652 7.92254 1.92571 7.9493 1.89516 7.98602C1.8646 8.02273 1.8457 8.06773 1.84087 8.11525C1.83604 8.16277 1.84549 8.21065 1.86803 8.25276C1.89056 8.29487 1.92515 8.32931 1.96737 8.35165L9.36237 12.4617C9.64614 12.619 9.88002 12.8529 10.0374 13.1367L14.1474 20.5316C14.1685 20.5741 14.2021 20.609 14.2437 20.6318C14.2852 20.6546 14.3327 20.6641 14.3799 20.6591C14.4276 20.6566 14.4733 20.6393 14.5109 20.6098C14.5485 20.5803 14.5761 20.5399 14.5899 20.4942L20.7324 2.07415C20.7475 2.03153 20.7499 1.98542 20.7393 1.94145C20.7286 1.89749 20.7054 1.8576 20.6724 1.82665C20.6409 1.79444 20.601 1.77172 20.5572 1.76111C20.5135 1.7505 20.4676 1.75242 20.4249 1.76665H20.4174Z" fill="white"/>
<path d="M20.6677 0.769841L8.6875 12.75L9.74816 13.8107L21.7283 1.8305L20.6677 0.769841Z" fill="white"/>
</svg>
